<svg version="1.2" xmlns="http://www.w3.org/2000/svg" viewBox="0 0 166 154" width="166" height="154"><style>.a{fill:#0a0b0d}.b{fill:none;stroke:#fff}.c{fill:#c0d0db}</style><path  d="m177 143.2v-32.9h12.2q3.8 0 6.3 1.4 2.6 1.4 3.9 3.9 1.3 2.4 1.3 5.6 0 3.2-1.3 5.6-1.3 2.5-3.9 3.9-2.6 1.4-6.4 1.4h-8.1v-4.9h7.3q2.2 0 3.6-0.8 1.4-0.8 2.1-2.1 0.7-1.4 0.7-3.1 0-1.8-0.7-3.1-0.7-1.3-2.1-2.1-1.4-0.7-3.6-0.7h-5.4v27.9z"/><path  d="m204.2 143.2v-24.7h5.6v4.1h0.3q0.6-2.1 2.3-3.3 1.6-1.1 3.7-1.1 0.5 0 1.1 0 0.6 0 1 0.1v5.4q-0.4-0.2-1.2-0.2-0.8-0.2-1.5-0.2-1.6 0-2.8 0.7-1.3 0.7-2 1.9-0.7 1.2-0.7 2.8v14.5z"/><path fill-rule="evenodd" d="m230.3 143.7q-3.6 0-6.2-1.6-2.6-1.6-4.1-4.4-1.4-2.9-1.4-6.7 0-3.9 1.4-6.7 1.5-2.9 4.1-4.5 2.6-1.6 6.2-1.6 3.6 0 6.2 1.6 2.7 1.6 4.1 4.5 1.4 2.8 1.4 6.7 0 3.8-1.4 6.7-1.4 2.8-4.1 4.4-2.6 1.6-6.2 1.6zm0.1-4.6q1.9 0 3.2-1.1 1.3-1.1 1.9-3 0.7-1.8 0.7-4 0-2.3-0.7-4.2-0.6-1.8-1.9-2.9-1.3-1.1-3.2-1.1-2 0-3.4 1.1-1.3 1.1-1.9 2.9-0.7 1.9-0.7 4.2 0 2.2 0.7 4 0.6 1.9 1.9 3 1.4 1.1 3.4 1.1z"/><path fill-rule="evenodd" d="m254.6 143.7q-2.8 0-5.1-1.5-2.3-1.5-3.6-4.4-1.3-2.8-1.3-6.9 0-4.1 1.3-6.9 1.4-2.9 3.7-4.3 2.2-1.5 5.1-1.5 2.1 0 3.5 0.7 1.4 0.8 2.2 1.8 0.8 1 1.2 1.9h0.3v-12.3h5.8v32.9h-5.7v-3.9h-0.4q-0.4 0.9-1.2 2-0.9 1-2.3 1.7-1.4 0.7-3.5 0.7zm1.7-4.8q1.8 0 3.1-1 1.3-1 1.9-2.8 0.7-1.8 0.7-4.2 0-2.4-0.7-4.2-0.6-1.8-1.9-2.7-1.3-1-3.1-1-2 0-3.3 1-1.2 1-1.9 2.8-0.7 1.8-0.7 4.1 0 2.3 0.7 4.1 0.7 1.8 2 2.9 1.3 1 3.2 1z"/><path  d="m288 132.8v-14.3h5.8v24.7h-5.6v-4.4h-0.2q-0.9 2.1-2.8 3.4-1.8 1.4-4.6 1.4-2.4 0-4.2-1.1-1.9-1.1-2.9-3.2-1-2.1-1-5v-15.8h5.7v14.9q0 2.3 1.3 3.7 1.3 1.4 3.3 1.4 1.3 0 2.5-0.7 1.2-0.6 2-1.8 0.7-1.3 0.7-3.2z"/><path  d="m309 143.7q-3.6 0-6.2-1.6-2.7-1.6-4.1-4.5-1.4-2.9-1.4-6.6 0-3.8 1.5-6.7 1.4-2.9 4-4.5 2.6-1.6 6.2-1.6 3 0 5.3 1.1 2.3 1.1 3.7 3.1 1.3 2 1.5 4.7h-5.5q-0.3-1.8-1.6-3-1.2-1.2-3.3-1.2-1.8 0-3.1 1-1.4 0.9-2.1 2.7-0.7 1.8-0.7 4.3 0 2.5 0.7 4.3 0.7 1.8 2.1 2.8 1.3 1 3.1 1 1.3 0 2.3-0.5 1-0.5 1.7-1.4 0.7-1 0.9-2.3h5.5q-0.2 2.6-1.5 4.6-1.3 2.1-3.6 3.2-2.3 1.1-5.4 1.1z"/><path  d="m335.1 118.5v4.5h-14v-4.5zm-10.6-5.9h5.7v23.2q0 1.2 0.4 1.8 0.3 0.6 0.9 0.8 0.6 0.3 1.3 0.3 0.6 0 1-0.1 0.5-0.1 0.7-0.2l1 4.6q-0.5 0.2-1.3 0.4-0.9 0.1-2.1 0.2-2.2 0-3.9-0.7-1.7-0.7-2.7-2.3-1-1.5-1-3.8z"/><path fill-rule="evenodd" d="m359 143.7q-3.6 0-6.2-1.6-2.6-1.6-4.1-4.4-1.4-2.9-1.4-6.7 0-3.9 1.4-6.7 1.5-2.9 4.1-4.5 2.6-1.6 6.2-1.6 3.6 0 6.2 1.6 2.6 1.6 4.1 4.5 1.4 2.8 1.4 6.7 0 3.8-1.4 6.7-1.5 2.8-4.1 4.4-2.6 1.6-6.2 1.6zm0-4.6q2 0 3.3-1.1 1.3-1.1 1.9-3 0.7-1.8 0.7-4 0-2.3-0.7-4.2-0.6-1.8-1.9-2.9-1.3-1.1-3.3-1.1-1.9 0-3.3 1.1-1.3 1.1-1.9 2.9-0.7 1.9-0.7 4.2 0 2.2 0.7 4 0.6 1.9 1.9 3 1.4 1.1 3.3 1.1z"/><path  d="m386.6 118.5v4.5h-14.4v-4.5zm-10.8 24.7v-27q0-2.5 1-4.2 1-1.6 2.8-2.5 1.7-0.8 3.8-0.8 1.5 0 2.7 0.3 1.1 0.2 1.7 0.4l-1.2 4.5q-0.3-0.1-0.9-0.2-0.5-0.1-1.2-0.1-1.6 0-2.3 0.7-0.7 0.8-0.7 2.3v26.6z"/><path  d="m399.1 143.2v-32.9h22.7v6.4h-14.8v6.8h13.7v6.5h-13.7v6.8h14.8v6.4z"/><path  d="m439.2 118.5v5.8h-15.4v-5.8zm-12.2-5.9h7.8v22.9q0 0.7 0.2 1.1 0.2 0.5 0.7 0.7 0.4 0.1 1.1 0.1 0.4 0 0.9 0 0.5-0.1 0.8-0.2l1.1 5.7q-0.5 0.1-1.5 0.4-1 0.2-2.4 0.3-2.8 0.1-4.7-0.7-2-0.7-3-2.4-1-1.7-1-4.2z"/><path  d="m450.1 129.1v14.1h-7.7v-32.9h7.5v12.8h0.3q0.8-2.3 2.7-3.6 1.9-1.3 4.6-1.3 2.6 0 4.5 1.1 1.9 1.2 2.9 3.3 1.1 2.1 1.1 4.9v15.7h-7.8v-14.2q0-2-1-3.2-1-1.2-2.9-1.2-1.2 0-2.2 0.6-0.9 0.5-1.4 1.5-0.5 1-0.6 2.4z"/><path  d="m480.9 143.7q-3.8 0-6.6-1.5-2.8-1.6-4.3-4.4-1.4-2.9-1.4-6.8 0-3.9 1.5-6.7 1.5-2.9 4.2-4.5 2.7-1.6 6.4-1.6 2.6 0 4.8 0.8 2.1 0.8 3.7 2.4 1.6 1.6 2.5 4 0.8 2.4 0.8 5.4v2h-21.2v-4.6h14q0-1.3-0.6-2.2-0.6-1-1.6-1.6-1-0.5-2.3-0.5-1.3 0-2.3 0.6-1 0.5-1.6 1.6-0.6 1-0.7 2.2v4.7q0 1.5 0.6 2.6 0.6 1.2 1.7 1.8 1.1 0.6 2.6 0.6 1 0 1.8-0.3 0.9-0.3 1.5-0.8 0.6-0.6 0.9-1.4l7.1 0.2q-0.4 2.4-1.9 4.2-1.5 1.8-3.9 2.8-2.5 1-5.7 1z"/><path  d="m495.2 143.2v-24.7h7.5v4.5h0.3q0.6-2.4 2.2-3.6 1.5-1.2 3.5-1.2 0.5 0 1.1 0.1 0.6 0 1.1 0.2v6.8q-0.6-0.2-1.5-0.3-0.9-0.1-1.6-0.1-1.4 0-2.5 0.6-1.1 0.6-1.7 1.7-0.7 1.1-0.7 2.6v13.4z"/><path  d="m534 126.1l-7.1 0.2q-0.1-0.8-0.6-1.4-0.5-0.6-1.3-1-0.8-0.3-1.8-0.3-1.4 0-2.3 0.5-1 0.6-1 1.5 0 0.7 0.6 1.3 0.6 0.5 2.2 0.8l4.7 0.9q3.6 0.7 5.4 2.4 1.8 1.6 1.8 4.3 0 2.6-1.5 4.4-1.4 1.9-4 3-2.5 1-5.8 1-5.2 0-8.3-2.2-3-2.2-3.4-5.8l7.7-0.2q0.2 1.3 1.3 2 1.1 0.7 2.7 0.7 1.5 0 2.5-0.5 0.9-0.6 0.9-1.5 0-0.8-0.7-1.3-0.7-0.6-2.3-0.9l-4.2-0.8q-3.7-0.7-5.5-2.5-1.8-1.8-1.8-4.6 0-2.5 1.3-4.3 1.3-1.7 3.8-2.7 2.4-0.9 5.7-0.9 5 0 7.9 2.1 2.8 2.1 3.1 5.8z"/><path  d="m548.5 143.7q-3.8 0-6.6-1.6-2.8-1.6-4.3-4.5-1.4-2.9-1.4-6.6 0-3.8 1.4-6.7 1.5-2.9 4.3-4.5 2.8-1.6 6.6-1.6 3.4 0 5.9 1.2 2.5 1.3 4 3.5 1.4 2.3 1.5 5.3h-7.3q-0.2-1.9-1.3-2.9-1-1.1-2.7-1.1-1.3 0-2.4 0.8-1 0.7-1.5 2.2-0.6 1.5-0.6 3.7 0 2.2 0.6 3.7 0.5 1.5 1.5 2.2 1.1 0.8 2.4 0.8 1.1 0 1.9-0.5 0.9-0.4 1.4-1.3 0.5-0.9 0.7-2.3h7.3q-0.1 3.1-1.5 5.4-1.4 2.3-3.9 3.5-2.5 1.3-6 1.3z"/><path fill-rule="evenodd" d="m569.4 143.7q-2.3 0-4.2-0.8-1.8-0.8-2.8-2.4-1-1.7-1-4.1 0-2.1 0.7-3.5 0.7-1.4 1.9-2.3 1.3-0.9 2.9-1.3 1.7-0.5 3.5-0.7 2.1-0.2 3.4-0.4 1.3-0.2 1.8-0.6 0.6-0.4 0.6-1.2 0-1.3-0.8-2-0.9-0.6-2.3-0.6-1.5 0-2.5 0.6-0.9 0.7-1.2 1.9l-7.1-0.3q0.3-2.2 1.6-4 1.3-1.8 3.7-2.8 2.3-1 5.6-1 2.3 0 4.3 0.6 2 0.5 3.4 1.6 1.5 1 2.3 2.5 0.8 1.6 0.8 3.5v16.8h-7.3v-3.4h-0.2q-0.7 1.2-1.7 2.1-1 0.9-2.4 1.3-1.3 0.5-3 0.5zm2.4-5.2q1.3 0 2.3-0.5 1-0.5 1.6-1.4 0.6-0.9 0.6-2.2v-2.3q-0.4 0.2-0.8 0.3-0.5 0.2-1 0.3-0.6 0.1-1.2 0.2-0.6 0.1-1.1 0.2-1.1 0.2-1.9 0.5-0.8 0.4-1.2 1-0.4 0.6-0.4 1.4 0 1.2 0.9 1.9 0.9 0.6 2.2 0.6z"/><path  d="m595.2 129.1v14.1h-7.8v-24.7h7.4v4.6h0.3q0.8-2.3 2.8-3.6 1.9-1.3 4.6-1.3 2.6 0 4.5 1.2 1.9 1.1 2.9 3.2 1.1 2.1 1.1 4.9v15.7h-7.8v-14.2q0-2-1-3.2-1.1-1.2-2.9-1.2-1.2 0-2.2 0.6-0.9 0.5-1.4 1.5-0.5 1-0.5 2.4z"/><path fill-rule="evenodd" class="a" d="m176 84.7v-72.7h26.6q7.8 0 12.8 2.6 5.1 2.5 7.6 6.8 2.6 4.3 2.6 9.7 0 4.5-1.7 7.7-1.7 3.1-4.5 4.9-2.7 1.9-6.1 2.7v0.8q3.6 0.1 7.1 2.3 3.5 2.1 5.7 6.1 2.3 3.9 2.3 9.6 0 5.5-2.6 10-2.6 4.4-8 7-5.5 2.5-13.9 2.5zm10.9-9.4h15.9q7.9 0 11.3-3 3.4-3.1 3.4-7.7 0-3.4-1.8-6.3-1.7-2.9-4.9-4.6-3.2-1.7-7.6-1.7h-16.3zm0-31.8h14.7q3.7 0 6.7-1.5 3-1.4 4.7-3.9 1.8-2.6 1.8-6.1 0-4.6-3.2-7.6-3.1-3.1-9.7-3.1h-15z"/><path fill-rule="evenodd" class="a" d="m253.4 85.9q-5.1 0-9.3-1.9-4.2-1.9-6.7-5.6-2.4-3.7-2.4-9.1 0-4.6 1.8-7.6 1.8-3 4.8-4.7 3-1.8 6.7-2.6 3.8-0.9 7.6-1.4 4.9-0.6 8-0.9 3-0.4 4.4-1.3 1.4-0.8 1.4-2.7v-0.3q0-4.6-2.6-7.2-2.6-2.5-7.8-2.5-5.3 0-8.4 2.3-3.1 2.4-4.2 5.3l-10-2.3q1.8-5 5.2-8 3.4-3.1 7.9-4.5 4.5-1.4 9.4-1.4 3.3 0 6.9 0.7 3.7 0.8 6.9 2.8 3.2 2 5.3 5.8 2.1 3.7 2.1 9.7v36.2h-10.4v-7.4h-0.4q-1.1 2-3.1 4-2.1 2-5.3 3.3-3.2 1.3-7.8 1.3zm2.3-8.5q4.5 0 7.6-1.7 3.1-1.8 4.8-4.6 1.6-2.8 1.6-6.1v-7q-0.5 0.6-2.2 1.1-1.6 0.4-3.6 0.8-2.1 0.3-4 0.6-2 0.3-3.3 0.4-3.1 0.4-5.6 1.3-2.6 1-4.1 2.7-1.5 1.7-1.5 4.6 0 3.9 2.9 5.9 2.9 2 7.4 2z"/><path class="a" d="m332.4 43.5l-9.6 1.7q-0.7-1.8-2-3.5-1.2-1.7-3.4-2.8-2.2-1-5.6-1-4.5 0-7.5 2-3 2-3 5.2 0 2.7 2 4.4 2.1 1.6 6.6 2.7l8.6 2q7.6 1.7 11.2 5.3 3.7 3.7 3.7 9.5 0 4.9-2.8 8.7-2.8 3.8-7.8 6-5.1 2.1-11.7 2.1-9.1 0-14.9-3.9-5.8-3.9-7.1-11.2l10.2-1.5q1 4 4 6 3 2.1 7.8 2.1 5.2 0 8.3-2.2 3.1-2.2 3.1-5.4 0-2.5-1.9-4.3-1.9-1.7-5.8-2.6l-9.2-2q-7.6-1.8-11.3-5.6-3.6-3.8-3.6-9.6 0-4.8 2.7-8.4 2.7-3.7 7.4-5.7 4.8-2 10.9-2 8.9 0 14 3.8 5 3.8 6.7 10.2z"/><path class="a" d="m365.6 85.8q-8 0-13.9-3.4-5.8-3.5-8.9-9.8-3.1-6.3-3.1-14.8 0-8.4 3.1-14.8 3.1-6.4 8.8-9.9 5.7-3.6 13.3-3.6 4.6 0 8.9 1.5 4.4 1.5 7.8 4.8 3.4 3.3 5.4 8.5 2 5.2 2 12.6v3.7h-43.3v-7.9h32.9q0-4.2-1.7-7.4-1.7-3.3-4.8-5.2-3-1.9-7.2-1.9-4.4 0-7.8 2.2-3.3 2.2-5.1 5.7-1.8 3.5-1.8 7.6v6.2q0 5.5 2 9.3 1.9 3.8 5.4 5.9 3.5 2 8.1 2 3 0 5.5-0.9 2.5-0.9 4.3-2.6 1.8-1.8 2.8-4.3l10 1.8q-1.2 4.4-4.3 7.8-3.1 3.3-7.8 5.1-4.6 1.8-10.6 1.8z"/><path class="a" d="m438.3 31.1q-0.5-5-4.7-7.8-4.1-2.8-10.3-2.8-4.5 0-7.8 1.4-3.2 1.4-5.1 3.8-1.7 2.5-1.7 5.5 0 2.6 1.2 4.5 1.2 1.9 3.2 3.2 2 1.2 4.3 2.1 2.4 0.8 4.5 1.3l7.1 1.9q3.5 0.8 7.1 2.3 3.7 1.4 6.8 3.8 3.1 2.4 5 5.9 2 3.5 2 8.4 0 6.2-3.2 11-3.2 4.8-9.2 7.6-6 2.7-14.5 2.7-8.2 0-14.1-2.6-6-2.6-9.4-7.3-3.4-4.8-3.7-11.4h11q0.3 4 2.5 6.6 2.3 2.6 5.8 3.9 3.6 1.2 7.8 1.2 4.7 0 8.3-1.5 3.6-1.4 5.7-4.1 2.1-2.6 2.1-6.2 0-3.2-1.8-5.3-1.8-2-4.9-3.4-3.1-1.3-7-2.4l-8.6-2.3q-8.8-2.4-13.9-7-5.1-4.6-5.1-12.2 0-6.3 3.4-11 3.5-4.7 9.3-7.3 5.8-2.6 13.1-2.6 7.4 0 13 2.6 5.7 2.6 9 7.1 3.3 4.5 3.4 10.4z"/><path class="a" d="m482.1 85.8q-7.9 0-13.6-3.6-5.7-3.6-8.7-9.9-3.1-6.4-3.1-14.6 0-8.3 3.1-14.7 3.2-6.4 8.8-9.9 5.7-3.6 13.4-3.6 6.2 0 11.1 2.3 4.9 2.2 7.9 6.4 3 4.1 3.5 9.6h-10.3q-0.8-3.8-3.9-6.6-3-2.8-8.1-2.8-4.4 0-7.8 2.4-3.3 2.3-5.1 6.6-1.9 4.2-1.9 10 0 6 1.8 10.3 1.9 4.4 5.2 6.8 3.3 2.3 7.8 2.3 3 0 5.5-1.1 2.5-1.1 4.1-3.2 1.7-2.1 2.4-5h10.3q-0.5 5.3-3.4 9.4-2.9 4.2-7.7 6.5-4.8 2.4-11.3 2.4z"/><path fill-rule="evenodd" class="a" d="m528.8 85.9q-5.2 0-9.4-1.9-4.2-1.9-6.6-5.6-2.5-3.7-2.5-9.1 0-4.6 1.8-7.6 1.8-3 4.8-4.7 3-1.8 6.8-2.6 3.7-0.9 7.6-1.4 4.9-0.6 7.9-0.9 3.1-0.4 4.5-1.3 1.3-0.8 1.3-2.7v-0.3q0-4.6-2.6-7.2-2.6-2.5-7.7-2.5-5.4 0-8.5 2.3-3 2.4-4.2 5.3l-10-2.3q1.8-5 5.2-8 3.4-3.1 7.9-4.5 4.5-1.4 9.4-1.4 3.3 0 7 0.7 3.6 0.8 6.8 2.8 3.3 2 5.3 5.8 2.1 3.7 2.1 9.7v36.2h-10.4v-7.4h-0.4q-1 2-3.1 4-2.1 2-5.3 3.3-3.2 1.3-7.7 1.3zm2.3-8.5q4.4 0 7.5-1.7 3.2-1.8 4.8-4.6 1.7-2.8 1.7-6.1v-7q-0.6 0.6-2.2 1.1-1.6 0.4-3.7 0.8-2 0.3-4 0.6-2 0.3-3.3 0.4-3.1 0.4-5.6 1.3-2.5 1-4.1 2.7-1.5 1.7-1.5 4.6 0 3.9 3 5.9 2.9 2 7.4 2z"/><path class="a" d="m577.5 52.3v32.4h-10.7v-54.5h10.2v8.9h0.7q1.9-4.4 5.9-7 4-2.6 10.2-2.6 5.6 0 9.8 2.3 4.1 2.3 6.5 6.9 2.3 4.6 2.3 11.3v34.7h-10.7v-33.4q0-5.9-3-9.3-3.1-3.3-8.5-3.3-3.7 0-6.6 1.6-2.8 1.6-4.5 4.6-1.6 3.1-1.6 7.4z"/><path class="a" d="m32.9 73.7q0-1.3 0.5-2.5 0.5-1.2 1.4-2.1 0.9-0.9 2.1-1.4 1.2-0.5 2.5-0.5l10.8 0.1c1.7 0 3.4 0.6 4.6 1.9 1.2 1.2 1.9 2.8 1.9 4.6v40.9c1.2-0.4 2.8-0.8 4.5-1.2 1.2-0.2 2.3-0.9 3-1.9 0.8-0.9 1.2-2.1 1.2-3.3v-50.8c0-1.7 0.7-3.4 1.9-4.6 1.2-1.2 2.9-1.9 4.6-1.9h10.8c1.8 0 3.4 0.7 4.6 1.9 1.2 1.2 1.9 2.9 1.9 4.6v47.1c0 0 2.7-1.1 5.4-2.2 1-0.4 1.8-1.1 2.4-2 0.6-0.9 0.9-1.9 0.9-3v-56.2c0-1.7 0.7-3.3 1.9-4.6 1.2-1.2 2.9-1.9 4.6-1.9h10.9c1.7 0 3.3 0.7 4.5 1.9 1.3 1.3 2 2.9 2 4.6v46.3c9.4-6.8 18.9-15 26.4-24.9 1.1-1.4 1.9-3.1 2.1-4.9 0.3-1.7 0.2-3.6-0.4-5.3-3.5-10-9.1-19.3-16.3-27.1-7.3-7.7-16.1-13.9-25.9-18.1-9.8-4.2-20.4-6.3-31-6.2-10.7 0.1-21.2 2.5-30.9 6.9-9.7 4.4-18.4 10.8-25.5 18.8-7 8-12.4 17.3-15.6 27.5-3.3 10.1-4.4 20.8-3.3 31.4 1.1 10.6 4.5 20.9 9.8 30.1 0.9 1.6 2.3 2.9 3.9 3.8 1.6 0.8 3.5 1.2 5.3 1q3.1-0.3 7.7-0.8c1.3-0.1 2.5-0.8 3.4-1.8 0.9-1 1.4-2.2 1.4-3.6 0 0 0-40.6 0-40.6z"/><path fill-rule="evenodd" class="b" d="m32.9 73.7q0-1.3 0.5-2.5 0.5-1.2 1.4-2.1 0.9-0.9 2.1-1.4 1.2-0.5 2.5-0.5l10.8 0.1c1.7 0 3.4 0.6 4.6 1.9 1.2 1.2 1.9 2.8 1.9 4.6v40.9c1.2-0.4 2.8-0.8 4.5-1.2 1.2-0.2 2.3-0.9 3-1.9 0.8-0.9 1.2-2.1 1.2-3.3v-50.8c0-1.7 0.7-3.4 1.9-4.6 1.2-1.2 2.9-1.9 4.6-1.9h10.8c1.8 0 3.4 0.7 4.6 1.9 1.2 1.2 1.9 2.9 1.9 4.6v47.1c0 0 2.7-1.1 5.4-2.2 1-0.4 1.8-1.1 2.4-2 0.6-0.9 0.9-1.9 0.9-3v-56.2c0-1.7 0.7-3.3 1.9-4.6 1.2-1.2 2.9-1.9 4.6-1.9h10.9c1.7 0 3.3 0.7 4.5 1.9 1.3 1.3 2 2.9 2 4.6v46.3c9.4-6.8 18.9-15 26.4-24.9 1.1-1.4 1.9-3.1 2.1-4.9 0.3-1.7 0.2-3.6-0.4-5.3-3.5-10-9.1-19.3-16.3-27.1-7.3-7.7-16.1-13.9-25.9-18.1-9.8-4.2-20.4-6.3-31-6.2-10.7 0.1-21.2 2.5-30.9 6.9-9.7 4.4-18.4 10.8-25.5 18.8-7 8-12.4 17.3-15.6 27.5-3.3 10.1-4.4 20.8-3.3 31.4 1.1 10.6 4.5 20.9 9.8 30.1 0.9 1.6 2.3 2.9 3.9 3.8 1.6 0.8 3.5 1.2 5.3 1q3.1-0.3 7.7-0.8c1.3-0.1 2.5-0.8 3.4-1.8 0.9-1 1.4-2.2 1.4-3.6 0 0 0-40.6 0-40.6z"/><path class="c" d="m32.6 139.3c11.4 8.4 25 13.3 39 14.5 14.1 1.1 28.3-1.7 40.8-8.1 12.6-6.5 23.2-16.2 30.6-28.3 7.4-12 11.3-25.9 11.3-40q0-2.7-0.2-5.3c-28 41.8-79.7 61.3-121.5 67.2z"/></svg>